<?xml version="1.0" encoding="utf-8"?>
<!-- Generator: Adobe Illustrator 25.4.1, SVG Export Plug-In . SVG Version: 6.00 Build 0)  -->
<svg version="1.1" id="Capa_1" xmlns="http://www.w3.org/2000/svg" xmlns:xlink="http://www.w3.org/1999/xlink" x="0px" y="0px"
	 viewBox="0 0 1920 1080" style="enable-background:new 0 0 1920 1080;" xml:space="preserve">
<path d="M1134,565.6c-2.1-0.9-4-2.2-5.7-3.5c-2.1-1.5-2.3-4.6-0.4-6.3c17.3-16.2,34.8-30.8,49.5-47.9c54.1-62.8,55.9-150.3,6-216.5
	c-24.7-32.6-57.1-54.2-94.8-69.3c-38.7-15.5-78.9-13.5-119.1-13.6c-21.7,0-22.9-1.4-23.3-23.2c-0.1-3.4-0.2-6.8-0.1-10.2
	c0.3-9.1-3.9-13.3-13.1-13.8c-16-1-19.8,2.6-20.3,20.9c-0.7,26.3-0.7,26.3-27.1,26.3c-97,0-194,0-291,0c-12.9,0-25.5,0.9-39,8.3
	c-3.4,1.9-2.5,7,1.3,7.7c8.2,1.4,14.8,2.6,21.5,3.6c47.7,6.8,78.3,41.4,78.8,89.6c0.3,32.3,0,64.7,0,97
	c0.1,132.7,0.4,265.5,0.1,398.2c-0.1,32.2-9.6,57.3-27.7,74.4c-0.1,0.1-0.3,0.2-0.4,0.4l-15.1,11.2c-0.1,0.1-0.3,0.2-0.4,0.3
	c-13.5,7.8-29.9,12.6-49.1,14.3c-3.7,0.3-7.4,1.2-11,1.9c-1.8,0.4-3.1,1.8-3.3,3.6c0,0,0,0,0,0.1c-0.2,2.1,1.1,4,3.2,4.5
	c13.6,3.1,27.1,7.9,40.7,7.9c137.8,0.7,275.7,1.7,413.5-0.1c50.5-0.6,97.7-13,138.5-40.6c0,0,0,0,0,0c0.2,0.1,0.5-0.2,1.1-0.7
	c0.1-0.1,0.3-0.2,0.4-0.3c11.4-7.9,22.3-16.9,32.6-27.3C1264.4,778.1,1255.6,620.9,1134,565.6z M698.6,869.6
	c0.6-199.6,1.2-399.3,1.8-598.9c0.1-25.4,1.8-27.2,27.1-27.1c94.7,0.1,189.4,0.3,284.2,0.7c38.7,0.2,73.8,12.5,104.6,35.3
	c47.1,34.9,68.9,81.9,61.5,140.7c-7.6,60.6-44.1,99.1-98.4,122.2c-13.4,5.7-27.4,9.7-42.1,14.1c-4,1.2-3.9,6.8,0.1,8
	c19.3,5.4,37.6,9.9,54.8,17c111.7,46.3,136.2,181.2,48.8,265c-0.6,0.6-1.2,1.2-1.8,1.9c-0.1,0.1-0.1,0.1-0.2,0.2
	c-1,1-3.4,3.3-4.1,3.8c-8.8,7.4-20.1,13.2-20.1,13.2c-11.7,6.1-22.9,10.1-31.1,12.7c-6.3,2.1-14,4.3-22.8,6.3
	c-5.4,1.3-11.5,2.5-18.3,3.5c-23,3.5-40.7,3.1-47.7,3c-15-0.3-47.8,2.2-113.6,2.2c-53.1,0-106.2,0-159.3,0
	C698.6,893.6,698.5,893.4,698.6,869.6z"/>
<path d="M745.2,348.1c0-6.7-0.6-13.4-1-22.8c-17.9,6.6-25.9,14.9-25.6,32.3c0.9,58.4,0.4,116.8,0.5,175.2c0,22.9,0.7,23.9,24.1,24
	c66.9,0.2,133.8-0.1,200.8-0.1c46.2,0,89.8-10.9,131.5-30.2c30.2-14,54.9-34.5,70.7-63.9c45.4-84.9-11.8-188-117.8-198.5
	c-60.1-6-121.2-3.1-181.8-3.8c-36.3-0.4-72.6-0.1-108.9,0.1c-9.5,0-18,0.8-18.6,14.1c-0.7,14.5,5.5,18.7,19.1,18.5
	c51.6-0.4,103.2,0.2,154.8-0.3c14.8-0.1,20.6,5.6,20,20.1c-0.6,15.3,0.3,30.6-0.2,45.9c-0.4,12.3,1.7,20.9,17,20.9
	c16.1,0,16.4-10,16.2-21.6c-0.2-16.4,0.2-32.9,0.1-49.3c-0.1-10.5,4.6-16.2,15.3-15.7c23.7,1,48.1-0.9,71.1,4
	c44.2,9.4,78.4,33.8,90.3,80.1c11.1,43-7.8,88.4-46.5,114c-28.9,19.2-61.3,30.1-96,30.5c-71.4,0.8-142.9,0-214.4,0.5
	c-15.4,0.1-21.2-5.3-21-20.8C745.5,450.2,745.2,399.2,745.2,348.1z"/>
<path d="M734.6,576.3c-10.3,0-15.5,3.4-15.7,14.7c-0.2,11.6,4.4,16.8,15.8,16.9c8.5,0,17,0.3,25.5,0.3c82.2,0.2,164.5-0.5,246.7,1.2
	c20.4,0.4,41.7,6.3,60.7,14.1c51.5,21.2,76.8,68.9,70.1,126.6c-5.2,44.3-46.2,84.3-97.2,91.5c-25.7,3.6-51.9,2.8-78,3.9
	c-12.5,0.5-17.2-6-16.9-17.9c0.3-10.8,0.1-21.5,0-32.3c0-11.4,1.9-23.5-15.9-23.7c-18.6-0.2-16.9,12.5-16.9,24.5
	c0,9.6-0.6,19.3,0.1,28.9c0.9,12.4-3.4,18.4-12.8,20.2c-22.7-0.4-52.2-0.9-90.5-1.4c-24.9-0.4-45.4-0.4-59.5-0.4
	c-5.2-2.8-6.2-8.7-6.2-21.3c-0.3-52.2-0.1-104.4-0.4-156.5c0-7.6,0.8-16.2,0-24.7c-18.2,4.1-24.1,16.1-24,30.5
	c0.2,36.2,0.2,72.3,0.3,108.5v101.5c50.6-0.1,101.3-0.6,151.9-1.4c50.3-0.8,100.7-2,151-3.6c13.7-0.5,37.2-3.2,62.9-15.8
	c22.4-10.9,37.6-25,46.4-34.5c0,0,0,0,0,0c0.6-0.5,1.1-1,1.7-1.5c63.8-59.4,52.4-165.8-21.1-213.6c-33.2-21.6-70.6-33-109.3-33.8
	C913.8,575.2,824.2,576.5,734.6,576.3z"/>
<path d="M841.6,741c64.5,0.5,129,0.6,193.5,0c20.4-0.2,34.7-11.1,45.2-35.1c-97.4,0-190.9-0.9-288,0.6
	C805.9,729.2,820.7,740.8,841.6,741z"/>
<path d="M1068.8,400.6c-92.6,0-182.5,0-274.8,0c11.2,20.7,26.4,30.9,47.3,31.1c60.5,0.4,121.1,0.5,181.6,0.2
	C1043.3,431.7,1057.9,421.4,1068.8,400.6z"/>
<path d="M941.8,502.4h-24.6c-2.4,0-4.4-2-4.4-4.4v-29.2c0-2.4,2-4.4,4.4-4.4h24.6c2.4,0,4.4,2,4.4,4.4V498
	C946.2,500.4,944.2,502.4,941.8,502.4z"/>
<path d="M941.9,688h-21c-3.3,0-5.9-2.6-5.9-5.9v-35.3c0-3.3,2.6-5.9,5.9-5.9h21c3.3,0,5.9,2.6,5.9,5.9v35.3
	C947.8,685.4,945.2,688,941.9,688z"/>
<circle cx="930.1" cy="129.5" r="18.1"/>
<circle cx="930.1" cy="980.2" r="21.8"/>
</svg>
